<?xml version="1.0" encoding="utf-8"?>
<!-- Generator: Adobe Illustrator 16.0.0, SVG Export Plug-In . SVG Version: 6.00 Build 0)  -->
<!DOCTYPE svg PUBLIC "-//W3C//DTD SVG 1.1//EN" "http://www.w3.org/Graphics/SVG/1.1/DTD/svg11.dtd">
<svg version="1.1" id="Layer_1" xmlns="http://www.w3.org/2000/svg" xmlns:xlink="http://www.w3.org/1999/xlink" x="0px" y="0px"
	 width="491.04px" height="568.77px" viewBox="0 0 491.04 568.77" enable-background="new 0 0 491.04 568.77" xml:space="preserve">
<rect x="31.104" y="64.085" transform="matrix(0.9397 -0.342 0.342 0.9397 -51.146 82.0547)" width="352.005" height="243.95"/>
<rect x="46.081" y="35.071" transform="matrix(0.9397 -0.342 0.342 0.9397 -24.0842 48.6455)" width="159.633" height="115.09"/>
<polyline stroke="#000000" stroke-miterlimit="10" points="215.431,301.41 0,131.637 362.333,0.001 491.04,6.518 490.946,201.131 
	215.431,301.41 "/>
<polygon stroke="#000000" stroke-miterlimit="10" points="112.002,568.768 10.639,375.949 490.946,201.131 491.04,568.768 "/>
<polygon stroke="#000000" stroke-miterlimit="10" points="10.639,375.949 80.818,568.768 112.002,568.768 "/>
<polygon stroke="#000000" stroke-miterlimit="10" points="0,131.637 79.765,350.789 215.431,301.41 "/>
<polygon stroke="#000000" stroke-miterlimit="10" points="299.388,22.668 181.219,11.243 31.214,65.84 102.665,94.27 "/>
<polygon stroke="#000000" stroke-miterlimit="10" points="31.214,65.84 102.665,94.27 48.709,113.908 "/>
</svg>
