<?xml version="1.0" encoding="utf-8"?>
<!-- Generator: Adobe Illustrator 16.0.0, SVG Export Plug-In . SVG Version: 6.00 Build 0)  -->
<!DOCTYPE svg PUBLIC "-//W3C//DTD SVG 1.1//EN" "http://www.w3.org/Graphics/SVG/1.1/DTD/svg11.dtd">
<svg version="1.1" id="Layer_1" xmlns="http://www.w3.org/2000/svg" xmlns:xlink="http://www.w3.org/1999/xlink" x="0px" y="0px"
	 width="787.62px" height="603.45px" viewBox="0 0 787.62 603.45" enable-background="new 0 0 787.62 603.45" xml:space="preserve">
<polygon stroke="#000000" stroke-miterlimit="10" enable-background="new    " points="0.001,-0.001 208.72,34.228 376.055,63.192 
	473.871,85.033 557.463,52.594 578.959,85.444 586.441,73.034 616.021,72.456 636.35,65.077 660.533,73.034 677.447,63.312 
	706.117,57.438 721.998,73.034 748.434,62.792 787.619,56.833 762.555,77.572 736.877,109.413 717.668,115.705 705.664,137.442 
	703.965,159.403 699.994,170.312 660.963,184.083 609.912,218.288 582.047,218.288 540.814,288.037 535.121,315.852 
	513.965,325.734 490.611,325.734 434.963,365.676 399.711,372.166 237.748,603.452 0.001,603.452 "/>
</svg>
