<?xml version="1.0" encoding="utf-8"?>
<!-- Generator: Adobe Illustrator 16.0.0, SVG Export Plug-In . SVG Version: 6.00 Build 0)  -->
<!DOCTYPE svg PUBLIC "-//W3C//DTD SVG 1.1//EN" "http://www.w3.org/Graphics/SVG/1.1/DTD/svg11.dtd">
<svg version="1.1" id="Layer_1" xmlns="http://www.w3.org/2000/svg" xmlns:xlink="http://www.w3.org/1999/xlink" x="0px" y="0px"
	 width="927.59px" height="596.54px" viewBox="0 0 927.59 596.54" enable-background="new 0 0 927.59 596.54" xml:space="preserve">
<polygon stroke="#000000" stroke-miterlimit="10" points="0.002,596.54 41.752,494.25 116.38,299.094 149.816,292.937 
	202.599,255.053 224.75,255.053 244.819,245.679 250.218,219.297 289.329,153.14 315.758,153.14 364.179,120.695 401.202,107.634 
	404.966,97.287 406.578,76.456 417.965,55.839 436.184,49.871 460.542,19.669 467.964,13.535 484.321,0 499.938,17.986 
	516.124,43.63 526.392,46.521 531.471,52.907 540.759,53.831 547.891,64.075 547.891,82.114 570.782,79.604 578.497,82.49 
	599.81,127.922 628.511,142.268 688.752,180.5 808.753,162.251 875.502,346.25 840.627,358.625 927.587,596.537 "/>
</svg>
