<?xml version="1.0" encoding="utf-8"?>
<!-- Generator: Adobe Illustrator 16.0.0, SVG Export Plug-In . SVG Version: 6.00 Build 0)  -->
<!DOCTYPE svg PUBLIC "-//W3C//DTD SVG 1.1//EN" "http://www.w3.org/Graphics/SVG/1.1/DTD/svg11.dtd">
<svg version="1.1" id="Layer_1" xmlns="http://www.w3.org/2000/svg" xmlns:xlink="http://www.w3.org/1999/xlink" x="0px" y="0px"
	 width="693.03px" height="296.75px" viewBox="0 0 693.03 296.75" enable-background="new 0 0 693.03 296.75" xml:space="preserve">
<polygon stroke="#000000" stroke-miterlimit="10" points="693.168,24.639 317.022,71.217 291.103,-0.062 215.573,26.603 
	117.051,46.825 62.756,78.794 50.542,82.729 45.608,89.135 30.147,94.417 0.037,115.863 15.639,133.865 31.795,159.526 
	42.06,162.43 47.132,168.821 56.418,169.756 63.539,180.008 63.519,198.047 86.413,195.562 94.125,198.457 115.386,243.912 
	144.071,258.29 204.27,296.591 324.291,278.477 381.481,257.456 369.354,220.943 508.743,170.433 579.228,185.845 633.084,166.238 
	693.001,173.805 "/>
</svg>
