<?xml version="1.0" encoding="utf-8"?>
<!-- Generator: Adobe Illustrator 16.0.0, SVG Export Plug-In . SVG Version: 6.00 Build 0)  -->
<!DOCTYPE svg PUBLIC "-//W3C//DTD SVG 1.1//EN" "http://www.w3.org/Graphics/SVG/1.1/DTD/svg11.dtd">
<svg version="1.1" id="Layer_1" xmlns="http://www.w3.org/2000/svg" xmlns:xlink="http://www.w3.org/1999/xlink" x="0px" y="0px"
	 width="1246.64px" height="634.04px" viewBox="0 0 1246.64 634.04" enable-background="new 0 0 1246.64 634.04"
	 xml:space="preserve">
<polygon stroke="#000000" stroke-miterlimit="10" enable-background="new    " points="0,634.038 185.373,473.062 259.733,317.896 
	295.271,311.352 351.372,271.086 374.914,271.086 396.245,261.123 401.984,233.083 443.552,162.767 471.643,162.767 
	523.108,128.283 562.457,114.401 566.459,103.404 568.172,81.264 580.273,59.351 599.639,53.007 625.525,20.907 633.416,14.388 
	650.799,0.002 667.4,19.118 684.602,46.374 695.516,49.447 700.912,56.235 710.785,57.216 718.365,68.104 718.365,87.278 
	742.695,84.609 750.895,87.677 773.549,135.964 804.053,151.211 863.705,166.77 995.623,172.451 1145.705,317.02 1246.639,634.034 
	"/>
</svg>
