<?xml version="1.0" encoding="utf-8"?>
<!-- Generator: Adobe Illustrator 16.0.0, SVG Export Plug-In . SVG Version: 6.00 Build 0)  -->
<!DOCTYPE svg PUBLIC "-//W3C//DTD SVG 1.1//EN" "http://www.w3.org/Graphics/SVG/1.1/DTD/svg11.dtd">
<svg version="1.1" id="Layer_1" xmlns="http://www.w3.org/2000/svg" xmlns:xlink="http://www.w3.org/1999/xlink" x="0px" y="0px"
	 width="795.73px" height="734.539px" viewBox="0 0 795.73 734.539" enable-background="new 0 0 795.73 734.539"
	 xml:space="preserve">
<polygon stroke="#000000" stroke-miterlimit="10" points="795.73,0 351.281,0.81 247.362,31.466 134.265,54.811 71.966,91.587 
	57.948,96.121 52.29,103.484 34.544,109.568 0,134.231 17.938,154.88 36.52,184.324 48.312,187.644 54.142,194.976 64.808,196.037 
	72.996,207.799 72.996,228.511 99.279,225.629 108.137,228.943 132.61,281.107 165.565,297.58 234.732,341.477 330.023,352.466 
	402.023,361.562 642.023,423.563 795.636,734.539 "/>
<polygon stroke="#000000" stroke-miterlimit="10" points="865.984,-9 1093.722,62.916 1227.821,56.549 1366.927,80.892 
	1455.296,46.6 1478.018,81.327 1485.928,68.208 1517.199,67.597 1538.688,59.797 1564.254,68.208 1582.134,57.931 1612.443,51.721 
	1629.229,68.208 1657.175,57.38 1698.6,51.082 1672.104,73.005 1644.959,106.666 1624.652,113.317 1611.962,136.295 
	1610.166,159.512 1605.968,171.043 1564.709,185.601 1510.74,221.761 1481.285,221.761 1437.697,295.494 1431.677,324.897 
	1409.311,335.345 1384.625,335.345 1325.796,377.567 1288.531,384.429 1117.314,628.929 865.984,628.929 "/>
</svg>
