<?xml version="1.0" encoding="utf-8"?>
<!-- Generator: Adobe Illustrator 16.0.0, SVG Export Plug-In . SVG Version: 6.00 Build 0)  -->
<!DOCTYPE svg PUBLIC "-//W3C//DTD SVG 1.1//EN" "http://www.w3.org/Graphics/SVG/1.1/DTD/svg11.dtd">
<svg version="1.1" id="Layer_1" xmlns="http://www.w3.org/2000/svg" xmlns:xlink="http://www.w3.org/1999/xlink" x="0px" y="0px"
	 width="832.619px" height="637.93px" viewBox="0 0 832.619 637.93" enable-background="new 0 0 832.619 637.93"
	 xml:space="preserve">
<polygon stroke="#000000" stroke-miterlimit="10" points="0.001,0 227.74,71.916 361.838,65.549 500.944,89.892 589.313,55.6 
	612.035,90.327 619.946,77.208 651.216,76.597 672.705,68.797 698.271,77.208 716.151,66.931 746.46,60.721 763.246,77.208 
	791.192,66.38 832.617,60.082 806.121,82.005 778.976,115.666 758.669,122.317 745.979,145.295 744.183,168.512 739.985,180.043 
	698.726,194.601 644.757,230.761 615.302,230.761 571.714,304.494 565.694,333.897 543.328,344.345 518.642,344.345 
	459.813,386.567 422.548,393.429 251.331,637.929 0.001,637.929 "/>
</svg>
