<?xml version="1.0" encoding="utf-8"?>
<!-- Generator: Adobe Illustrator 16.0.0, SVG Export Plug-In . SVG Version: 6.00 Build 0)  -->
<!DOCTYPE svg PUBLIC "-//W3C//DTD SVG 1.1//EN" "http://www.w3.org/Graphics/SVG/1.1/DTD/svg11.dtd">
<svg version="1.1" id="Layer_1" xmlns="http://www.w3.org/2000/svg" xmlns:xlink="http://www.w3.org/1999/xlink" x="0px" y="0px"
	 width="1314.471px" height="668.529px" viewBox="0 0 1314.471 668.529" enable-background="new 0 0 1314.471 668.529"
	 xml:space="preserve">
<polygon stroke="#000000" stroke-miterlimit="10" points="0,668.531 190.23,553.897 273.865,335.188 311.336,328.288 
	370.49,285.832 395.313,285.832 417.804,275.327 423.856,245.761 467.685,171.619 497.304,171.619 551.571,135.259 593.06,120.622 
	597.28,109.026 599.086,85.681 611.846,62.576 632.264,55.888 659.561,22.041 667.882,15.167 686.212,-0.002 703.716,20.154 
	721.852,48.893 733.359,52.133 739.052,59.291 749.462,60.326 757.453,71.806 757.453,92.022 783.105,89.208 791.753,92.444 
	815.639,143.358 847.803,159.435 915.314,202.281 1049.798,181.83 1124.602,388.035 1314.471,668.528 "/>
</svg>
